HIERARCHY
ROOT SpineBase
{
  OFFSET 0.000000 0.000000 0.000000
  CHANNELS 6 Xposition Yposition Zposition Zrotation Xrotation Yrotation
  JOINT SpineMid
  {
    OFFSET 0.000000 24.611034 0.000000
    CHANNELS 3 Zrotation Xrotation Yrotation
    JOINT SpineShoulder
    {
      OFFSET 0.007989 18.529709 -0.538668
      CHANNELS 3 Zrotation Xrotation Yrotation
      JOINT Neck
      {
        OFFSET -0.020030 6.218419 -0.469943
        CHANNELS 3 Zrotation Xrotation Yrotation
        JOINT Head
        {
          OFFSET 3.438001 12.401906 1.509472
          CHANNELS 3 Zrotation Xrotation Yrotation
          End Site
          {
            OFFSET 0 0 0
          }
        }
      }
      JOINT ShoulderLeft
      {
        OFFSET -13.062784 -1.364316 -10.371651
        CHANNELS 3 Zrotation Xrotation Yrotation
        JOINT ElbowLeft
        {
          OFFSET -4.936133 -18.870536 -6.707241
          CHANNELS 3 Zrotation Xrotation Yrotation
          JOINT WristLeft
          {
            OFFSET -12.700180 -9.613659 -12.939986
            CHANNELS 3 Zrotation Xrotation Yrotation
            JOINT HandLeft
            {
              OFFSET 2.283341 -2.498039 0.558099
              CHANNELS 3 Zrotation Xrotation Yrotation
              JOINT HandTipLeft
              {
                OFFSET 0.526374 -5.841224 1.894555
                CHANNELS 3 Zrotation Xrotation Yrotation
                End Site
                {
                  OFFSET 0 0 0
                }
              }
              JOINT ThumbLeft
              {
                OFFSET 1.100198 -3.749870 -1.370815
                CHANNELS 3 Zrotation Xrotation Yrotation
                End Site
                {
                  OFFSET 0 0 0
                }
              }
            }
          }
        }
      }
      JOINT ShoulderRight
      {
        OFFSET 15.016509 -6.431753 1.674290
        CHANNELS 3 Zrotation Xrotation Yrotation
        JOINT ElbowRight
        {
          OFFSET 4.101384 -23.547148 -2.631232
          CHANNELS 3 Zrotation Xrotation Yrotation
          JOINT WristRight
          {
            OFFSET -0.339796 -8.566569 -20.234913
            CHANNELS 3 Zrotation Xrotation Yrotation
            JOINT HandRight
            {
              OFFSET 2.489410 0.904882 -4.310096
              CHANNELS 3 Zrotation Xrotation Yrotation
              JOINT HandTipRight
              {
                OFFSET 4.324097 -1.679796 -6.254267
                CHANNELS 3 Zrotation Xrotation Yrotation
                End Site
                {
                  OFFSET 0 0 0
                }
              }
              JOINT ThumbRight
              {
                OFFSET -4.553308 -1.407876 -2.788493
                CHANNELS 3 Zrotation Xrotation Yrotation
                End Site
                {
                  OFFSET 0 0 0
                }
              }
            }
          }
        }
      }
    }
  }
  JOINT HipLeft
  {
    OFFSET -6.332030 1.795753 -5.280677
    CHANNELS 3 Zrotation Xrotation Yrotation
    JOINT KneeLeft
    {
      OFFSET 7.582013 1.615294 -34.107965
      CHANNELS 3 Zrotation Xrotation Yrotation
      JOINT AnkleLeft
      {
        OFFSET 3.080969 -33.528454 -9.859914
        CHANNELS 3 Zrotation Xrotation Yrotation
        JOINT FootLeft
        {
          OFFSET 4.782675 -5.748964 -5.040959
          CHANNELS 3 Zrotation Xrotation Yrotation
          End Site
          {
            OFFSET 0 0 0
          }
        }
      }
    }
  }
  JOINT HipRight
  {
    OFFSET 6.032930 1.054775 -0.513447
    CHANNELS 3 Zrotation Xrotation Yrotation
    JOINT KneeRight
    {
      OFFSET 18.032294 -2.147143 -28.319111
      CHANNELS 3 Zrotation Xrotation Yrotation
      JOINT AnkleRight
      {
        OFFSET -0.489235 -33.390396 -8.395745
        CHANNELS 3 Zrotation Xrotation Yrotation
        JOINT FootRight
        {
          OFFSET -1.688850 -7.473167 1.144654
          CHANNELS 3 Zrotation Xrotation Yrotation
          End Site
          {
            OFFSET 0 0 0
          }
        }
      }
    }
  }
}
MOTION
Frames: 13
Frame Time: 0.033333
18.948706 41.955931 360.875031 -0.000000 0.000000 -21.083823 -0.000000 0.000000 21.083823 -0.000000 0.000000 0.000000 -0.000000 0.000000 0.000000 0.000000 0.000000 0.000000 -0.000000 0.000000 0.000000 -0.000000 0.000000 0.000000 -0.000000 0.000000 0.000000 -0.000000 0.000000 0.000000 0.000000 0.000000 0.000000 0.000000 0.000000 0.000000 -0.000000 0.000000 0.000000 -0.000000 0.000000 0.000000 -0.000000 0.000000 0.000000 -0.000000 0.000000 0.000000 0.000000 0.000000 0.000000 0.000000 0.000000 0.000000 -0.000000 0.000000 21.083823 -0.000000 0.000000 0.000000 -0.000000 0.000000 0.000000 0.000000 0.000000 0.000000 -0.000000 0.000000 21.083823 -0.000000 0.000000 0.000000 -0.000000 0.000000 0.000000 0.000000 0.000000 0.000000
18.883800 41.972278 360.819742 -0.097254 0.052015 -20.985540 0.109431 -0.013735 20.985598 -0.000000 0.000000 0.000000 -0.000000 0.000000 0.000000 0.000000 0.000000 0.000000 1.388611 0.163496 -0.539766 1.172861 -0.527872 -2.496464 -9.092217 5.196135 7.050467 9.033491 3.440484 -1.604856 0.000000 0.000000 0.000000 0.000000 0.000000 0.000000 -0.335446 0.973873 0.209873 0.513788 -2.358530 -0.596328 0.117058 2.325126 -0.730182 0.237891 -0.519554 0.184953 0.000000 0.000000 0.000000 0.000000 0.000000 0.000000 0.109431 -0.013735 20.985598 -0.000000 0.000000 0.000000 0.435430 0.970764 0.417695 0.000000 0.000000 0.000000 0.109431 -0.013735 20.985598 -0.000000 0.000000 0.000000 11.174082 31.691897 -9.412590 0.000000 0.000000 0.000000
18.834758 41.988032 360.764967 -0.169605 0.104179 -20.890411 0.195604 -0.036852 20.890628 -0.000000 0.000000 0.000000 -0.796380 0.419801 -0.016488 0.000000 0.000000 0.000000 2.456391 0.263893 -0.952447 2.315387 -1.172386 -4.503237 -17.630094 8.744372 13.430836 17.273807 6.889700 -2.246107 0.000000 0.000000 0.000000 0.000000 0.000000 0.000000 -0.618367 1.695317 0.373288 0.910026 -4.204625 -1.025185 0.227136 4.164129 -1.232399 0.213937 -1.144623 0.394031 0.000000 0.000000 0.000000 0.000000 0.000000 0.000000 0.195604 -0.036852 20.890628 -0.000000 0.000000 0.000000 0.751449 1.813011 0.821702 0.000000 0.000000 0.000000 0.195604 -0.036852 20.890628 -0.945159 0.077982 0.237089 30.495519 53.619078 -27.294798 0.000000 0.000000 0.000000
18.801580 42.003191 360.710708 -0.217037 0.156494 -20.798533 0.258462 -0.069229 20.798986 -0.000000 0.000000 0.000000 -1.099986 0.555476 -0.014721 0.000000 0.000000 0.000000 3.256592 0.314807 -1.257184 3.346262 -1.891664 -5.970844 -24.960153 11.008848 18.720490 23.968490 9.860205 -2.304811 0.000000 0.000000 0.000000 0.000000 0.000000 0.000000 -0.841743 2.148398 0.483693 1.193329 -5.497485 -1.285483 0.349864 5.539882 -1.566913 -0.054866 -1.896643 0.636707 0.000000 0.000000 0.000000 0.000000 0.000000 0.000000 0.258462 -0.069229 20.798986 -0.000000 0.000000 0.000000 0.952300 2.529556 1.216652 0.000000 0.000000 0.000000 0.258462 -0.069229 20.798986 -1.271491 0.049800 0.319454 50.583383 62.810337 -47.298274 0.000000 0.000000 0.000000
18.784267 42.017757 360.656963 -0.239532 0.208963 -20.709987 0.297952 -0.110751 20.710712 -0.000000 0.000000 0.000000 -1.340395 0.641513 -0.007156 0.000000 0.000000 0.000000 3.825435 0.324476 -1.467170 4.223151 -2.648774 -6.881801 -30.748488 12.485341 22.725729 28.782543 11.898255 -2.147596 0.000000 0.000000 0.000000 0.000000 0.000000 0.000000 -1.000249 2.322181 0.536171 1.366919 -6.209465 -1.376712 0.499792 6.467491 -1.771247 -0.562523 -2.793742 0.918166 0.000000 0.000000 0.000000 0.000000 0.000000 0.000000 0.179704 0.503280 19.982840 -0.098711 -0.617473 0.727746 1.041547 3.122927 1.606323 0.000000 0.000000 0.000000 0.297952 -0.110751 20.710712 -1.471784 -0.028005 0.370091 65.581112 66.115118 -62.827715 0.000000 0.000000 0.000000
18.782818 42.031728 360.603733 -0.237072 0.261588 -20.624833 0.314022 -0.161311 20.625817 -0.000000 0.000000 0.000000 -1.517549 0.677874 0.005749 0.000000 0.000000 0.000000 4.186163 0.297353 -1.590858 4.929691 -3.415604 -7.237959 -34.905550 13.605711 25.426489 31.691895 12.705282 -2.035273 0.000000 0.000000 0.000000 0.000000 0.000000 0.000000 -1.090580 2.210915 0.527786 1.432374 -6.326403 -1.299227 0.685943 6.958706 -1.864717 -1.313002 -3.853529 1.240495 0.000000 0.000000 0.000000 0.000000 0.000000 0.000000 0.187493 0.464821 19.713349 -0.092092 -0.632116 0.912295 1.022101 3.595208 1.993709 0.000000 0.000000 0.000000 0.314022 -0.161311 20.625817 -1.531202 -0.155959 0.385287 74.360703 67.615992 -72.687650 0.000000 0.000000 0.000000
18.799417 42.044008 360.544754 -0.203901 0.331376 -20.546730 0.307236 -0.238730 20.547959 -0.000000 0.000000 0.000000 -1.575181 0.602555 0.032830 0.000000 0.000000 0.000000 3.572487 -0.185489 -1.226557 7.005860 -4.392908 -7.858672 -38.635395 18.671682 33.498378 32.177718 7.569409 -5.081573 0.000000 0.000000 0.000000 0.000000 0.000000 0.000000 -1.201552 2.515959 0.598569 1.505259 -8.937981 -1.273904 2.382980 12.263054 -3.087727 -4.043755 -9.043752 1.425334 0.000000 0.000000 0.000000 0.000000 0.000000 0.000000 0.167838 0.421679 19.409494 -0.087992 -0.669200 1.138174 0.915899 3.794759 2.244216 0.000000 0.000000 0.000000 0.307236 -0.238730 20.547959 -1.461607 -0.305933 0.368286 79.139664 68.813352 -79.028273 0.000000 0.000000 0.000000
18.847772 42.050074 360.486366 -0.107948 0.397487 -20.445965 0.240003 -0.334735 20.447041 -0.000000 0.000000 0.000000 -1.621498 0.548500 0.052840 0.000000 0.000000 0.000000 4.095687 -0.249746 -1.396183 4.663381 -2.878809 -6.956489 -33.854397 10.215294 19.348400 30.224804 15.818066 0.262645 0.000000 0.000000 0.000000 0.000000 0.000000 0.000000 -1.105089 1.480000 0.395653 1.124068 -6.164667 -0.313319 2.444112 9.711905 -3.302980 -4.311843 -8.706175 2.039222 0.000000 0.000000 0.000000 0.000000 0.000000 0.000000 0.110965 0.202038 19.146094 -1.034361 -0.693620 1.568129 1.632480 3.903866 2.215109 0.000000 0.000000 0.000000 0.240003 -0.334735 20.447041 -1.071471 -0.865521 0.274492 58.606794 69.719302 -61.539060 0.000000 0.000000 0.000000
18.887742 42.062240 360.429903 -0.046580 0.462925 -20.356609 0.204709 -0.417808 20.357543 -0.000000 0.000000 0.000000 -1.571115 0.432438 0.076959 0.000000 0.000000 0.000000 4.483516 0.086934 -1.636762 3.033336 -3.403162 -4.394653 -30.154943 6.305982 9.551335 26.493266 21.516967 3.822383 0.000000 0.000000 0.000000 0.000000 0.000000 0.000000 -0.949989 -0.024549 0.101827 1.314399 -2.406756 -0.909720 1.456019 5.695220 0.824331 -5.711044 -8.177980 1.038721 0.000000 0.000000 0.000000 0.000000 0.000000 0.000000 0.106184 -0.156755 18.941866 -1.152414 -0.499989 1.732979 1.409409 5.051355 3.379286 0.000000 0.000000 0.000000 0.204709 -0.417808 20.357543 -0.650191 -0.869175 0.171604 37.656486 70.072852 -45.431187 0.000000 0.000000 0.000000
18.915923 42.082823 360.387373 -0.009230 0.505145 -20.283193 0.183775 -0.470620 20.283988 -0.000000 0.000000 0.000000 -1.576290 0.266371 0.121193 0.000000 0.000000 0.000000 4.892129 0.689942 -1.967421 2.308709 -4.913302 -2.058054 -29.714271 5.901757 5.189044 23.568443 18.854394 4.758810 0.000000 0.000000 0.000000 0.000000 0.000000 0.000000 -0.512504 -1.336069 -0.181809 1.302553 4.464022 -1.765972 -2.462869 -8.929929 6.775283 -1.985938 0.938645 -2.118908 0.000000 0.000000 0.000000 0.000000 0.000000 0.000000 0.100324 -0.357149 18.791046 -1.243446 -0.385840 1.847050 1.101489 4.846203 3.563034 0.000000 0.000000 0.000000 0.183775 -0.470620 20.283988 -0.487967 -0.917694 0.132493 51.599638 69.159317 -55.345669 0.000000 0.000000 0.000000
18.889077 42.094031 360.320425 -0.082407 0.562853 -20.246541 0.272104 -0.499555 20.248132 -0.000000 0.000000 0.000000 -1.538328 0.191943 0.136079 0.000000 0.000000 0.000000 5.148038 1.040352 -2.168178 3.347307 -6.518812 -1.695615 -33.272715 6.848749 5.529081 27.733317 25.854122 6.394601 0.000000 0.000000 0.000000 0.000000 0.000000 0.000000 -0.287244 -3.822488 -0.646211 2.720750 11.476150 -5.109848 -3.017266 -23.019851 22.261329 1.105377 10.073341 -12.016961 0.000000 0.000000 0.000000 0.000000 0.000000 0.000000 0.207955 -0.647735 18.488236 -1.396519 -0.144708 2.184085 1.131367 4.577461 3.466340 0.000000 0.000000 0.000000 0.214563 -0.954432 19.577017 -0.212728 -0.448704 0.790183 63.698753 69.323008 -65.795216 0.000000 0.000000 0.000000
18.829934 42.096897 360.250299 -0.206219 0.624495 -20.315656 0.410224 -0.514042 20.318620 -0.000000 0.000000 0.000000 -1.496380 0.038975 0.171216 0.000000 0.000000 0.000000 5.093121 1.358901 -2.243742 3.604662 -7.191684 -1.261506 -32.418396 6.560926 4.426901 26.979682 32.183954 7.448927 0.000000 0.000000 0.000000 0.000000 0.000000 0.000000 -0.064869 -6.463969 -1.130698 2.443949 16.979051 -4.821999 -2.297255 -35.130618 30.514836 3.332836 16.545096 -15.167378 0.000000 0.000000 0.000000 0.000000 0.000000 0.000000 0.350349 -0.830460 18.228287 -1.575665 -0.034658 2.583019 1.891421 4.065567 2.495959 0.000000 0.000000 0.000000 0.163932 -1.820059 19.652105 0.296298 0.397928 0.767349 50.939470 71.924701 -58.054978 0.000000 0.000000 0.000000
18.737262 42.099835 360.201650 -0.398620 0.612788 -20.411670 0.587323 -0.435268 20.416033 -0.000000 0.000000 0.000000 -1.350763 0.092882 0.139290 0.000000 0.000000 0.000000 4.751453 1.363799 -2.116920 4.102739 -7.399601 -1.289311 -32.578616 6.208074 3.683072 29.387338 43.833458 9.076220 0.000000 0.000000 0.000000 0.000000 0.000000 0.000000 -0.115344 -9.914324 -1.745378 2.199772 21.782419 -4.226886 0.346083 -42.877049 39.339257 3.796470 20.621979 -16.593749 0.000000 0.000000 0.000000 0.000000 0.000000 0.000000 0.512890 -0.710709 18.117581 -1.635601 -0.129653 2.803934 2.565856 2.989977 1.045297 0.000000 0.000000 0.000000 0.140525 -2.655201 19.777329 0.808081 1.212119 0.721012 19.933027 71.218660 -33.722717 0.000000 0.000000 0.000000
